#!OML:ASF X:\für Bonn\!DataBase\2005_08_12_Daniel\c3d\Daniel.ASF
:FULLY-SPECIFIED
:DEGREES
111
root 2.22299 17.5933 18.6185 -5.13457 -350.408 361.487
lowerback 3.89907 2.09667 2.91311
upperback 0.0642855 2.82439 -6.45234
thorax -1.65231 1.38465 -8.55796
lowerneck 1.88278 -2.97453 -0.624263
upperneck 8.35269 -4.18361 3.22308
head 2.402 -2.01855 1.06408
rclavicle 2.83268e-014 -3.49861e-014
rhumerus 59.3855 7.60271 -48.8931
rradius 22.1927
rwrist 7.3868
rhand 2.14768 11.8161
rfingers 7.12502
rthumb 27.6458 -16.1725
lclavicle 2.83268e-014 -3.49861e-014
lhumerus -32.529 38.7103 61.1429
lradius 16.6516
lwrist -40.0965
lhand -12.2471 -5.34391
lfingers 7.12502
lthumb 13.8189 24.1771
rfemur 6.60384 15.4025 19.0607
rtibia 19.1128
rfoot -25.3053 -21.767
rtoes -12.3862
lfemur -1.98219 -18.1452 -22.0744
ltibia 29.0535
lfoot -20.7641 3.76243
ltoes -14.1965
112
root 2.22256 17.5942 18.6134 -5.1135 -350.284 361.489
lowerback 3.94164 2.13621 2.93738
upperback 0.0493517 2.87768 -6.50066
thorax -1.67905 1.4103 -8.62974
lowerneck 1.83725 -3.04163 -0.615244
upperneck 8.39923 -4.27903 3.28123
head 2.42935 -2.06334 1.07879
rclavicle -4.58199e-014 6.83819e-014
rhumerus 59.6151 7.33772 -49.3125
rradius 21.376
rwrist 8.40462
rhand 3.53554 11.7804
rfingers 7.12502
rthumb 28.9722 -15.9882
lclavicle -4.58199e-014 6.83819e-014
lhumerus -32.414 38.7235 61.2811
lradius 16.6776
lwrist -40.1554
lhand -12.1935 -5.36043
lfingers 7.12502
lthumb 13.8705 24.157
rfemur 6.59953 15.3927 19.0662
rtibia 19.0989
rfoot -25.335 -21.8665
rtoes -12.3945
lfemur -2.04835 -18.177 -22.0571
ltibia 29.0624
lfoot -20.7286 3.67318
ltoes -14.1501
113
root 2.22227 17.5948 18.6084 -5.11152 -350.173 361.489
lowerback 3.98462 2.17633 2.95891
upperback 0.0569784 2.93262 -6.53957
thorax -1.68277 1.43817 -8.68903
lowerneck 1.73589 -3.10363 -0.606588
upperneck 8.47895 -4.36706 3.31064
head 2.47678 -2.1042 1.08353
rclavicle -1.71949e-014 5.88403e-014
rhumerus 59.8363 6.98259 -49.9735
rradius 20.5766
rwrist 9.5619
rhand 4.99425 11.8386
rfingers 7.12502
rthumb 30.3645 -15.6821
lclavicle -1.71949e-014 5.88403e-014
lhumerus -32.3103 38.8101 61.406
lradius 16.7035
lwrist -40.2541
lhand -12.1038 -5.45767
lfingers 7.12502
lthumb 13.957 24.0539
rfemur 6.61632 15.4046 19.0826
rtibia 19.0841
rfoot -25.3835 -21.9706
rtoes -12.3621
lfemur -2.0967 -18.1911 -22.0379
ltibia 29.0709
lfoot -20.6955 3.56226
ltoes -14.1012
114
root 2.22216 17.5949 18.6036 -5.09935 -350.058 361.491
lowerback 4.02976 2.21193 2.99248
upperback 0.0454795 2.9812 -6.58902
thorax -1.70738 1.46153 -8.76757
lowerneck 1.69843 -3.15424 -0.624782
upperneck 8.53302 -4.44147 3.38149
head 2.50605 -2.13891 1.10736
rclavicle -5.19822e-014 6.67916e-014
rhumerus 59.9969 6.58615 -50.8676
rradius 19.8018
rwrist 10.9384
rhand 6.41818 11.9316
rfingers 7.12502
rthumb 31.7217 -15.3297
lclavicle -5.19822e-014 6.67916e-014
lhumerus -32.2617 38.8578 61.4934
lradius 16.7368
lwrist -40.3793
lhand -12.0312 -5.51923
lfingers 7.12502
lthumb 14.0269 23.9875
rfemur 6.61861 15.3593 19.0757
rtibia 19.0654
rfoot -25.406 -22.0428
rtoes -12.3618
lfemur -2.14836 -18.2259 -22.0286
ltibia 29.0799
lfoot -20.6643 3.48668
ltoes -14.0555
115
root 2.22223 17.5958 18.5985 -5.08056 -349.947 361.492
lowerback 4.07348 2.24807 3.01393
upperback 0.0348659 3.03003 -6.63214
thorax -1.73107 1.48514 -8.83209
lowerneck 1.67115 -3.20495 -0.646618
upperneck 8.56659 -4.51603 3.46124
head 2.52716 -2.1739 1.13488
rclavicle -5.17834e-014 -3.81667e-014
rhumerus 60.1465 6.13486 -51.9987
rradius 19.0281
rwrist 12.4294
rhand 7.83788 12.0633
rfingers 7.12502
rthumb 33.0729 -14.9215
lclavicle -5.17834e-014 -3.81667e-014
lhumerus -32.2149 38.8792 61.6089
lradius 16.788
lwrist -40.4214
lhand -11.8963 -5.61212
lfingers 7.12502
lthumb 14.1569 23.8855
rfemur 6.61708 15.3637 19.0825
rtibia 19.0483
rfoot -25.4594 -22.1416
rtoes -12.3337
lfemur -2.21185 -18.2605 -22.0157
ltibia 29.0874
lfoot -20.6393 3.42625
ltoes -14.1238
116
root 2.22192 17.5953 18.5938 -5.07687 -349.837 361.493
lowerback 4.12554 2.28022 3.03729
upperback 0.0281928 3.07378 -6.67144
thorax -1.75623 1.5062 -8.89379
lowerneck 1.66575 -3.25362 -0.67273
upperneck 8.58734 -4.58577 3.51933
head 2.53946 -2.20754 1.15661
rclavicle -1.86858e-014 3.97569e-014
rhumerus 60.2431 5.78496 -52.9185
rradius 18.3985
rwrist 13.6955
rhand 9.16936 12.1312
rfingers 7.12502
rthumb 34.3381 -14.5769
lclavicle -1.86858e-014 3.97569e-014
lhumerus -32.1791 38.7631 61.7729
lradius 16.8685
lwrist -40.3853
lhand -11.8245 -5.70234
lfingers 7.12502
lthumb 14.2261 23.7905
rfemur 6.61537 15.3632 19.0945
rtibia 19.0644
rfoot -25.5212 -22.2262
rtoes -12.294
lfemur -2.26322 -18.2723 -21.9967
ltibia 29.1094
lfoot -20.6185 3.31472
ltoes -14.0773
117
root 2.22192 17.5962 18.5889 -5.05388 -349.733 361.509
lowerback 4.17688 2.31615 3.04851
upperback 0.0130997 3.12165 -6.7148
thorax -1.78935 1.52892 -8.95337
lowerneck 1.62116 -3.30042 -0.742901
upperneck 8.64718 -4.65685 3.61381
head 2.57453 -2.24137 1.19694
rclavicle -9.14409e-015 6.36111e-014
rhumerus 60.379 5.37589 -54.0454
rradius 17.6538
rwrist 15.0846
rhand 10.3701 12.2748
rfingers 7.12502
rthumb 35.4772 -14.1685
lclavicle -9.14409e-015 6.36111e-014
lhumerus -32.1443 38.6437 61.9441
lradius 16.927
lwrist -40.3215
lhand -11.7721 -5.77035
lfingers 7.12502
lthumb 14.2766 23.7189
rfemur 6.59247 15.3504 19.0755
rtibia 19.0787
rfoot -25.5803 -22.2927
rtoes -12.2637
lfemur -2.33229 -18.3082 -22.0034
ltibia 29.1312
lfoot -20.6033 3.25141
ltoes -14.0218
118
root 2.22108 17.5934 18.5838 -5.04357 -349.626 361.51
lowerback 4.22034 2.35142 3.06801
upperback 0.0115687 3.16968 -6.75287
thorax -1.80365 1.55269 -9.01114
lowerneck 1.60792 -3.34817 -0.78396
upperneck 8.661 -4.72638 3.68859
head 2.58715 -2.27492 1.22655
rclavicle 6.85807e-015 3.18055e-015
rhumerus 60.4994 4.98558 -55.1287
rradius 16.975
rwrist 16.3874
rhand 11.4554 12.3616
rfingers 7.12502
rthumb 36.5054 -13.8291
lclavicle 6.85807e-015 3.18055e-015
lhumerus -32.1716 38.8069 61.96
lradius 16.9203
lwrist -40.5675
lhand -11.7221 -5.88556
lfingers 7.12502
lthumb 14.3248 23.6003
rfemur 6.58031 15.331 19.0815
rtibia 19.1002
rfoot -25.6337 -22.3599
rtoes -12.2361
lfemur -2.40236 -18.2987 -21.9793
ltibia 29.1581
lfoot -20.5738 3.13632
ltoes -13.9724
119
root 2.2209 17.5939 18.5792 -5.02857 -349.521 361.525
lowerback 4.27704 2.37308 3.07536
upperback -0.0024213 3.19821 -6.79217
thorax -1.84235 1.56546 -9.0637
lowerneck 1.59817 -3.38217 -0.851536
upperneck 8.69247 -4.77811 3.76688
head 2.60561 -2.30015 1.26226
rclavicle -1.25234e-014 3.18055e-015
rhumerus 60.6165 4.63956 -56.2294
rradius 16.3488
rwrist 17.6158
rhand 12.4416 12.4102
rfingers 7.12502
rthumb 37.4383 -13.5397
lclavicle -1.25234e-014 3.18055e-015
lhumerus -32.2486 38.9319 61.9536
lradius 16.9138
lwrist -40.7175
lhand -11.7491 -6.06261
lfingers 7.12502
lthumb 14.2988 23.4251
rfemur 6.56738 15.3452 19.0732
rtibia 19.1212
rfoot -25.7104 -22.4363
rtoes -12.1946
lfemur -2.45636 -18.3425 -21.9831
ltibia 29.1756
lfoot -20.5517 3.07706
ltoes -13.9354
120
root 2.2205 17.5947 18.5753 -5.01393 -349.406 361.538
lowerback 4.31712 2.40091 3.08164
upperback -0.00778375 3.23535 -6.83575
thorax -1.86093 1.58358 -9.11943
lowerneck 1.59557 -3.42177 -0.89495
upperneck 8.711 -4.83656 3.83826
head 2.61775 -2.32839 1.2916
rclavicle 1.08338e-014 -5.88403e-014
rhumerus 60.6939 4.30178 -57.2117
rradius 15.8121
rwrist 18.6621
rhand 13.3366 12.3872
rfingers 7.12502
rthumb 38.2837 -13.3343
lclavicle 1.08338e-014 -5.88403e-014
lhumerus -32.298 39.0085 61.9743
lradius 16.8893
lwrist -40.8058
lhand -11.7599 -6.23484
lfingers 7.12502
lthumb 14.2883 23.2536
rfemur 6.55975 15.3559 19.0743
rtibia 19.1384
rfoot -25.7805 -22.5344
rtoes -12.1583
lfemur -2.52 -18.351 -21.9774
ltibia 29.1958
lfoot -20.5346 2.97491
ltoes -13.9397
